<svg width="485" height="472" viewBox="0 0 485 472" fill="none" xmlns="http://www.w3.org/2000/svg">
<path d="M438.532 129.296C426.491 107.873 411.095 88.5891 393.035 72.1797L357.185 83.8459C352.08 85.5079 346.899 86.3608 341.783 86.481C338.75 86.5527 336.028 88.3556 334.68 91.0751L292.421 176.384C292.421 189.139 295.306 193.762 311.585 201.578L406.604 182.495C409.741 181.866 412.228 179.485 413 176.381C414.261 171.31 416.283 166.341 419.108 161.639L438.532 129.296Z" fill="#559BFE"/>
<path d="M402.792 229.59L324.201 244.614C321.865 287.153 281.079 316.507 237.665 315.205C196.524 313.97 162.791 280.812 160.896 239.696C158.802 194.198 195.069 156.652 240.106 156.652C245.96 156.652 253.407 151.528 258.9 152.732L295.307 73.5625C296.59 70.9725 296.306 67.8599 294.513 65.5935C291.108 61.2907 292.021 56.8259 290.006 51.4182L276.834 16.0739C264.88 14.1346 252.62 13.1094 240.119 13.1094C227.762 13.1094 215.64 14.1091 203.815 16.0057L190.577 51.328C180.441 78.3739 150.785 92.6221 123.337 83.6337L87.5133 71.9027C69.4223 88.281 53.9871 107.534 41.9082 128.934L61.2741 161.312C76.1002 186.1 68.7496 218.169 44.6081 234.025L13.1079 254.715C14.6451 279.767 20.2354 303.72 29.2341 325.93L66.6449 330.979C95.2684 334.844 115.758 360.584 113.103 389.346L109.637 426.893C129.46 440.802 151.604 451.62 175.374 458.665L202.646 432.567C223.513 412.597 256.413 412.627 277.244 432.635L304.468 458.785C328.253 451.782 350.415 441 370.263 427.129L366.864 389.578C364.262 360.812 384.799 335.109 413.429 331.297L450.848 326.316C459.89 304.118 465.521 280.175 467.104 255.128L435.642 234.382C430.956 231.291 430.205 232.825 426.83 228.683C425.082 226.538 422.264 225.579 419.551 226.123L402.792 229.59Z" fill="#559BFE"/>
<g style="mix-blend-mode:multiply">
<path d="M455.085 246.698C446.397 239.287 437.095 232.447 426.143 228.813C414.946 225.1 403.002 225.674 391.492 227.271C378.271 229.106 365.138 231.754 351.996 234.076C341.289 235.969 328.087 236.326 321.527 246.404C316.008 254.884 314.845 266.127 310.302 275.244C305.494 284.892 299.3 293.719 291.503 301.19C275.426 316.594 252.073 325.264 229.893 320.645C208.549 316.2 188.214 303.235 173.821 287.024C159.539 270.936 152.188 250.139 154.697 228.632C157.193 207.239 168.885 187.495 186.077 174.631C195.485 167.591 206.294 162.527 217.638 159.536C223.681 157.942 229.745 157.043 235.973 156.617C241.976 156.208 247.728 155.761 252.595 151.837C257.772 147.661 260.355 141.268 263.262 135.475C266.602 128.814 269.943 122.152 273.283 115.492C280.358 101.387 287.431 87.2809 294.505 73.1749C299.056 64.1009 285.417 56.0835 280.849 65.192C269.306 88.2077 258.148 111.47 246.195 134.274C243.255 139.881 241.08 140.463 234.941 140.865C229.764 141.203 224.583 141.867 219.494 142.881C209.367 144.899 199.487 148.508 190.349 153.315C153.704 172.595 131.887 214.263 140.228 255.355C148.165 294.455 185.566 326.281 223.373 335.373C266.207 345.672 307.545 318.74 325.308 280.407C327.781 275.068 329.947 269.574 331.673 263.948C333.327 258.56 333.576 254.136 339.545 252.371C352.448 248.558 366.804 247.449 380.055 245.107C393.02 242.814 406.885 239.757 419.883 243.429C430.555 246.441 439.318 253.742 447.513 261.021C444.755 277.071 441.996 293.12 439.238 309.17C416.046 311.064 391.554 314.599 372.733 329.038C349.102 347.168 344.834 377.167 349.058 404.995C349.454 407.607 351.085 412.215 350.031 414.825C348.955 417.494 344.881 419.576 342.717 421.024C336.11 425.451 329.088 429.336 321.749 432.407C314.828 435.305 309.682 437.619 303.092 433.055C296.737 428.653 290.858 423.534 284.673 418.894C273.726 410.684 261.639 402.874 247.979 400.261C233.416 397.474 219.005 400.739 206.295 408.156C199.604 412.059 193.434 416.997 187.755 422.25C184.613 425.157 181.625 428.224 178.726 431.371C176.176 434.143 174.173 437.574 170.1 437.378C166.612 437.209 162.606 434.903 159.404 433.591C154.971 431.775 150.638 429.707 146.39 427.493C139.604 423.956 133.117 419.923 126.862 415.533C129.423 386.624 129.712 355.677 110.284 332.068C91.8674 309.685 61.3242 307.273 34.4193 306.335C24.2406 305.979 24.2533 321.794 34.4193 322.15C53.004 322.798 73.5648 323.393 89.4889 334.248C106.505 345.846 111.983 367.636 112.447 387.088C112.575 392.464 112.384 397.845 112.048 403.211C111.713 408.563 109.523 416.264 110.984 421.419C112.231 425.818 117.748 428.503 121.301 430.918C126.154 434.215 131.174 437.265 136.338 440.05C145.449 444.963 155.748 450.306 165.898 452.629C176.423 455.038 183.156 449.876 189.912 442.557C202.738 428.655 219.515 413.716 239.787 415.041C259.333 416.318 275.468 431.695 290.207 443.015C298.246 449.189 305.892 453.601 316.35 451.064C326.267 448.656 336.253 443.527 344.961 438.319C352.466 433.832 362.516 428.244 365.218 419.264C367.939 410.22 363.729 399.393 363.348 390.148C362.478 368.987 369.03 348.73 388.141 337.668C405.41 327.671 426.467 325.888 445.957 324.472C449.16 324.24 452.975 322.203 453.582 318.667C455.842 305.517 458.103 292.367 460.362 279.217C461.445 272.919 463.028 266.487 463.643 260.127C464.28 253.551 459.706 250.642 455.085 246.698Z" fill="#DEEDFF"/>
</g>
<g style="mix-blend-mode:multiply">
<path d="M426.613 124.485L399.17 161.511C397.515 163.746 395.823 166.905 393.363 168.323C390.68 169.871 386.867 170.136 383.907 170.814C376.35 172.549 368.792 174.282 361.237 176.018C354.099 177.655 346.963 179.294 339.825 180.932C335.141 182.007 326.503 185.958 322.283 183.361C318.929 181.296 316.66 177.301 313.394 174.967C309.292 172.036 304.889 171.041 299.96 172.285C290.186 174.752 293.693 195.35 303.396 193.183C314.506 206.948 331.538 199.049 347.808 195.316C356.205 193.389 364.6 191.462 372.997 189.535C380.612 187.786 388.502 186.47 395.975 184.189C402.198 182.289 405.964 178.676 409.777 173.609C420.037 159.968 426.144 148.53 436.307 134.818C442.372 126.635 432.614 116.39 426.613 124.485Z" fill="#DEEDFF"/>
</g>
<path d="M431.54 141.542C435.758 133.91 435.979 124.547 431.245 117.223C423.053 104.552 413.64 92.7451 403.166 81.9749C397.09 75.7277 387.922 73.8471 379.548 76.2536C370.697 78.7964 360.82 81.4658 353.388 83.4397C345.92 85.4228 339.436 90.0231 335.259 96.5237C321.751 117.549 292.01 165.186 292.421 176.386C292.995 192.029 299.546 197.839 311.585 201.58C321.835 204.765 376.354 188.129 400.948 180.291C408.709 177.816 415.081 172.332 418.873 165.122C422.453 158.318 427.165 149.457 431.54 141.542Z" stroke="#396AB4" stroke-width="12.5862" stroke-linecap="round" stroke-linejoin="round"/>
<path d="M335.45 241.552C327.757 242.955 322.392 249.532 320.523 257.126C311.798 292.573 276.475 316.369 237.665 315.205C196.524 313.97 162.791 280.812 160.896 239.696C158.802 194.198 195.069 156.652 240.106 156.652C246.234 156.652 252.185 154.788 254.943 149.317C263.34 132.658 279.385 100.145 288.699 81.2312C293.288 71.9134 293.633 61.1507 290.006 51.4182L280.822 26.7773C278.357 20.1602 272.536 15.3085 265.517 14.5245C257.179 13.5931 248.706 13.1094 240.119 13.1094C233.504 13.1094 226.955 13.3959 220.482 13.9533C210.136 14.8444 201.564 22.0106 197.92 31.7347L190.577 51.328C180.441 78.3739 150.785 92.6221 123.337 83.6337L103.459 77.1243C93.5994 73.8957 82.6587 76.1018 75.4994 83.6101C66.3643 93.1909 58.0582 103.569 50.6932 114.628C44.9387 123.268 45.1985 134.435 50.5275 143.345L61.2741 161.312C76.1002 186.1 68.7496 218.169 44.6081 234.025L27.1116 245.517C18.4512 251.205 13.3543 261.117 14.7448 271.385C16.55 284.716 19.5096 297.678 23.5202 310.17C26.6899 320.042 35.576 326.786 45.8519 328.173L66.6449 330.979C95.2684 334.844 115.758 360.584 113.103 389.346L111.177 410.207C110.225 420.526 114.797 430.691 123.695 436.003C135.026 442.767 146.995 448.572 159.49 453.309C169.185 456.985 179.996 454.241 187.488 447.074L202.646 432.567C223.513 412.597 256.413 412.627 277.244 432.635L287.055 442.06C297.824 452.402 313.432 456.462 327.221 450.742C336.427 446.922 345.326 442.516 353.875 437.571C364.279 431.55 369.594 419.742 368.51 407.771L366.864 389.578C364.262 360.812 384.799 335.109 413.429 331.297L436.222 328.262C445.266 327.059 453.081 321.135 455.964 312.479C460.729 298.167 464.109 283.225 465.948 267.809C466.881 259.989 463.049 252.454 456.475 248.119L435.642 234.382C429.307 230.203 422.166 226.576 414.682 227.84C395.164 231.138 356.851 237.651 335.45 241.552Z" stroke="#396AB4" stroke-width="12.5862" stroke-linecap="round" stroke-linejoin="round"/>
<path d="M373.628 157.304C385.637 157.304 395.374 147.568 395.374 135.559C395.374 123.548 385.637 113.812 373.628 113.812C361.618 113.812 351.883 123.548 351.883 135.559C351.883 147.568 361.618 157.304 373.628 157.304Z" fill="white" stroke="#396AB4" stroke-width="10.544" stroke-linecap="round" stroke-linejoin="round"/>
</svg>
